PathFileType	4	(X/Y/Z)	RBDS010static.trc
DataRate	CameraRate	NumFrames	NumMarkers	Units	OrigDataRate	OrigDataStartFrame	OrigNumFrames
150.000000	150.000000	4	48	mm	150.000000	37	150
Frame#	Time	L.Ankle			L.Ankle.Medial			L.ASIS			L.GTR			L.Heel.Bottom			L.Heel.Lateral			L.Heel.Top			L.HF			L.Iliac.Crest			L.Knee			L.Knee.Medial			L.MT1			L.MT2			L.MT5			L.PSIS			L.Shank.Bottom.Lateral			L.Shank.Bottom.Medial			L.Shank.Top.Lateral			L.Shank.Top.Medial			L.Thigh.Bottom.Lateral			L.Thigh.Bottom.Medial			L.Thigh.Top.Lateral			L.Thigh.Top.Medial			L.TT			R.Ankle			R.Ankle.Medial			R.ASIS			R.GTR			R.Heel.Bottom			R.Heel.Lateral			R.Heel.Top			R.HF			R.Iliac.Crest			R.Knee			R.Knee.Medial			R.MT1			R.MT2			R.MT5			R.PSIS			R.Shank.Bottom.Lateral			R.Shank.Bottom.Medial			R.Shank.Top.Lateral			R.Shank.Top.Medial			R.Thigh.Bottom.Lateral			R.Thigh.Bottom.Medial			R.Thigh.Top.Lateral			R.Thigh.Top.Medial			R.TT			
		X1	Y1	Z1	X2	Y2	Z2	X3	Y3	Z3	X4	Y4	Z4	X5	Y5	Z5	X6	Y6	Z6	X7	Y7	Z7	X8	Y8	Z8	X9	Y9	Z9	X10	Y10	Z10	X11	Y11	Z11	X12	Y12	Z12	X13	Y13	Z13	X14	Y14	Z14	X15	Y15	Z15	X16	Y16	Z16	X17	Y17	Z17	X18	Y18	Z18	X19	Y19	Z19	X20	Y20	Z20	X21	Y21	Z21	X22	Y22	Z22	X23	Y23	Z23	X24	Y24	Z24	X25	Y25	Z25	X26	Y26	Z26	X27	Y27	Z27	X28	Y28	Z28	X29	Y29	Z29	X30	Y30	Z30	X31	Y31	Z31	X32	Y32	Z32	X33	Y33	Z33	X34	Y34	Z34	X35	Y35	Z35	X36	Y36	Z36	X37	Y37	Z37	X38	Y38	Z38	X39	Y39	Z39	X40	Y40	Z40	X41	Y41	Z41	X42	Y42	Z42	X43	Y43	Z43	X44	Y44	Z44	X45	Y45	Z45	X46	Y46	Z46	X47	Y47	Z47	X48	Y48	Z48	

38	0.2466666666666667	710.519287109375	102.1510696411133	1038.60986328125	728.4080810546875	118.3450927734375	1118.384399414063	815.2169799804688	980.9949951171875	1090.498779296875	707.1301879882813	892.3053588867188	1043.145874023438	637.5369262695313	39.75559997558594	1083.016357421875	666.6009521484375	56.45610809326172	1038.471313476563	647.3970947265625	90.36997985839844	1084.285888671875	696.1138916015625	448.9897766113281	1028.947631835938	766.2537841796875	1065.620239257813	1060.643432617188	692.805908203125	512.4117431640625	1033.101318359375	716.8466796875	495.6758117675781	1157.243896484375	852.0643310546875	56.02127838134766	1125.236328125	864.4533081054688	69.27740478515625	1079.69287109375	829.0806274414063	50.94066619873047	1011.227294921875	647.8142700195313	1028.958862304688	1165.560668945313	684.2841796875	171.5242004394531	1034.308227539063	656.0875854492188	170.8917694091797	1080.425903320313	670.2599487304688	249.8657379150391	1024.95654296875	642.0873413085938	250.2961578369141	1071.018432617188	694.9127807617188	598.1516723632813	1025.952026367188	645.8818359375	589.6392822265625	1078.970336914063	676.6677856445313	706.7036743164063	1029.8046875	632.1957397460938	699.512939453125	1081.361694335938	756.344482421875	430.6885986328125	1065.728515625	706.517333984375	115.906867980957	1402.672119140625	724.7515258789063	120.1907348632813	1319.96435546875	819.2032470703125	977.2959594726563	1321.6123046875	717.6906127929688	886.7168579101563	1376.756225585938	632.59814453125	40.60558700561523	1369.12060546875	660.9268188476563	61.61990737915039	1412.280151367188	641.8384399414063	89.21231079101563	1367.428344726563	720.520263671875	445.6142272949219	1394.277465820313	751.8987426757813	1057.907470703125	1359.807739257813	720.7489013671875	510.3970642089844	1389.547241210938	735.5606079101563	490.8839721679688	1266.566528320313	842.489501953125	57.96094512939453	1323.551635742188	859.580810546875	73.06748962402344	1374.134643554688	824.2769165039063	50.89068222045898	1438.157958984375	650.1299438476563	1028.517578125	1262.2744140625	697.0930786132813	188.3065032958984	1408.263916015625	658.2017822265625	188.3625946044922	1374.995361328125	691.8482055664063	272.9892883300781	1411.870483398438	651.746337890625	268.8264465332031	1376.276245117188	717.1328125	611.370361328125	1395.928588867188	663.2877197265625	603.457275390625	1345.788452148438	700.6842651367188	719.8773803710938	1392.040771484375	650.2679443359375	713.5934448242188	1345.269165039063	780.3909912109375	436.6925354003906	1357.633178710938	
39	0.2533333333333334	710.5352783203125	102.1471633911133	1038.62353515625	728.4066772460938	118.3412017822266	1118.390625	815.1958618164063	980.9857788085938	1090.515380859375	707.10205078125	892.2908935546875	1043.143310546875	637.53759765625	39.75359344482422	1083.028930664063	666.6079711914063	56.45316696166992	1038.473510742188	647.3984985351563	90.36566162109375	1084.293212890625	696.1015014648438	448.9795532226563	1028.953979492188	766.2470703125	1065.616943359375	1060.64453125	692.802490234375	512.4200439453125	1033.10107421875	716.8246459960938	495.6404113769531	1157.235473632813	852.0574951171875	56.02577590942383	1125.236938476563	864.4614868164063	69.26927185058594	1079.69384765625	829.087646484375	50.94025039672852	1011.233520507813	647.7958984375	1028.9521484375	1165.5712890625	684.2864379882813	171.515380859375	1034.309814453125	656.0912475585938	170.8891906738281	1080.421875	670.2564086914063	249.8570098876953	1024.965209960938	642.0911254882813	250.2904052734375	1071.031005859375	694.8954467773438	598.146728515625	1025.953491210938	645.8705444335938	589.6396484375	1078.96826171875	676.65966796875	706.6923828125	1029.807495117188	632.17626953125	699.5120849609375	1081.365966796875	756.3278198242188	430.6753540039063	1065.721557617188	706.5042114257813	115.9148254394531	1402.668701171875	724.736572265625	120.1713256835938	1319.973999023438	819.1829833984375	977.2952270507813	1321.614379882813	717.6715087890625	886.7110595703125	1376.752197265625	632.5991821289063	40.60453414916992	1369.116455078125	660.9218139648438	61.61885833740234	1412.277709960938	641.8409423828125	89.21360015869141	1367.423950195313	720.5171508789063	445.6111145019531	1394.284423828125	751.8629760742188	1057.90625	1359.813354492188	720.73095703125	510.4043884277344	1389.544921875	735.5599975585938	490.9090270996094	1266.57470703125	842.4971313476563	57.95378875732422	1323.549926757813	859.5841674804688	73.06415557861328	1374.128662109375	824.280029296875	50.87518692016602	1438.145263671875	650.104248046875	1028.518676757813	1262.265258789063	697.1023559570313	188.2966156005859	1408.257568359375	658.1954345703125	188.3564605712891	1374.990600585938	691.8440551757813	272.9886779785156	1411.873168945313	651.7413330078125	268.8171997070313	1376.27880859375	717.1151123046875	611.3710327148438	1395.921264648438	663.2661743164063	603.4627685546875	1345.785278320313	700.6571044921875	719.8764038085938	1392.041137695313	650.2476806640625	713.5929565429688	1345.264282226563	780.3756103515625	436.6953430175781	1357.637084960938	
40	0.26	710.5259399414063	102.1373291015625	1038.614135742188	728.4108276367188	118.3359298706055	1118.385986328125	815.1676025390625	980.9976196289063	1090.501220703125	707.08447265625	892.2896728515625	1043.142578125	637.5362548828125	39.75265502929688	1083.013916015625	666.5928344726563	56.45492553710938	1038.462646484375	647.3933715820313	90.37596130371094	1084.278076171875	696.0971069335938	448.9815979003906	1028.9521484375	766.2279052734375	1065.622436523438	1060.644897460938	692.777587890625	512.4141235351563	1033.104736328125	716.82373046875	495.6538391113281	1157.252197265625	852.0604858398438	56.01972198486328	1125.230224609375	864.4661865234375	69.27615356445313	1079.683471679688	829.0838623046875	50.93968200683594	1011.227783203125	647.7734375	1028.950317382813	1165.5654296875	684.2783813476563	171.5138549804688	1034.308959960938	656.0823974609375	170.8750305175781	1080.422485351563	670.2510986328125	249.8531188964844	1024.963500976563	642.0784301757813	250.289306640625	1071.029663085938	694.8750610351563	598.140869140625	1025.95068359375	645.851806640625	589.6350708007813	1078.972534179688	676.6396484375	706.6890869140625	1029.798217773438	632.16796875	699.5098266601563	1081.36669921875	756.3109741210938	430.6871643066406	1065.71533203125	706.5213012695313	115.8950500488281	1402.668212890625	724.7405395507813	120.1802520751953	1319.968872070313	819.1544189453125	977.3016967773438	1321.604370117188	717.6465454101563	886.716064453125	1376.753784179688	632.594482421875	40.60201644897461	1369.109375	660.9230346679688	61.61798095703125	1412.27197265625	641.841064453125	89.20539855957031	1367.416259765625	720.505859375	445.6152038574219	1394.270874023438	751.8339233398438	1057.899047851563	1359.7998046875	720.7255859375	510.3907470703125	1389.541015625	735.5354614257813	490.9071350097656	1266.567016601563	842.4920043945313	57.95184707641602	1323.546142578125	859.5811157226563	73.06475830078125	1374.12060546875	824.279541015625	50.89038848876953	1438.16650390625	650.0827026367188	1028.518188476563	1262.262817382813	697.0881958007813	188.2970275878906	1408.253051757813	658.1932373046875	188.3478851318359	1374.980712890625	691.8405151367188	272.9818725585938	1411.868530273438	651.7313842773438	268.81884765625	1376.278564453125	717.0957641601563	611.3697509765625	1395.9228515625	663.2433471679688	603.4580078125	1345.784301757813	700.6309814453125	719.8740844726563	1392.040649414063	650.2244262695313	713.5864868164063	1345.26708984375	780.3532104492188	436.6962890625	1357.62451171875	
41	0.2666666666666667	710.5316162109375	102.153190612793	1038.607666015625	728.4105834960938	118.3385848999023	1118.387939453125	815.1398315429688	980.9905395507813	1090.518310546875	707.06298828125	892.2935791015625	1043.15576171875	637.5335083007813	39.75153732299805	1083.025756835938	666.5964965820313	56.4573974609375	1038.466064453125	647.400634765625	90.36498260498047	1084.281860351563	696.086669921875	448.9819946289063	1028.955200195313	766.2103881835938	1065.636108398438	1060.651489257813	692.774658203125	512.4202880859375	1033.1083984375	716.7944946289063	495.6617431640625	1157.255249023438	852.0536499023438	56.03292846679688	1125.23681640625	864.4638671875	69.26869201660156	1079.68896484375	829.0814819335938	50.94624328613281	1011.229797363281	647.7445678710938	1028.95263671875	1165.557250976563	684.2655639648438	171.5220336914063	1034.314575195313	656.072021484375	170.8815765380859	1080.434692382813	670.2415161132813	249.8555297851563	1024.9697265625	642.0675048828125	250.2818603515625	1071.039184570313	694.8715209960938	598.1439819335938	1025.962768554688	645.8511962890625	589.6263427734375	1078.968994140625	676.6261596679688	706.6976928710938	1029.814575195313	632.1558227539063	699.5055541992188	1081.365600585938	756.3153076171875	430.6943359375	1065.730102539063	706.51806640625	115.8963851928711	1402.6591796875	724.7409057617188	120.1880569458008	1319.966918945313	819.1277465820313	977.3046875	1321.619995117188	717.6129150390625	886.7189331054688	1376.75048828125	632.5958862304688	40.6196403503418	1369.125854492188	660.9257202148438	61.61670303344727	1412.26806640625	641.8407592773438	89.21649932861328	1367.431884765625	720.4887084960938	445.6101379394531	1394.265747070313	751.8023071289063	1057.896606445313	1359.799438476563	720.7119140625	510.3992614746094	1389.533569335938	735.5171508789063	490.9088134765625	1266.573486328125	842.489501953125	57.95922088623047	1323.542846679688	859.5828857421875	73.06743621826172	1374.130737304688	824.2745971679688	50.89664840698242	1438.163452148438	650.055908203125	1028.51416015625	1262.269165039063	697.0772094726563	188.2999114990234	1408.253540039063	658.1884765625	188.3464508056641	1374.975952148438	691.8314819335938	272.9862060546875	1411.859619140625	651.7296142578125	268.8179626464844	1376.271118164063	717.07373046875	611.3668212890625	1395.923095703125	663.213134765625	603.456298828125	1345.785034179688	700.6070556640625	719.882080078125	1392.034545898438	650.20751953125	713.5817260742188	1345.263549804688	780.349853515625	436.7126770019531	1357.643432617188	
